<?xml version="1.0" encoding="utf-8"?>
<!-- Generator: Adobe Illustrator 27.0.0, SVG Export Plug-In . SVG Version: 6.00 Build 0)  -->
<svg version="1.1" id="圖層_1" xmlns="http://www.w3.org/2000/svg" xmlns:xlink="http://www.w3.org/1999/xlink" x="0px" y="0px"
	 viewBox="0 0 800 500" style="enable-background:new 0 0 800 500;" xml:space="preserve">
<style type="text/css">
	.st0{fill:#1F5958;}
	.st1{fill:#D26C71;}
	.st2{fill:#FCF6EA;}
	.st3{fill:#42393C;}
</style>
<g>
	<rect class="st0" width="800" height="500"/>
	<g>
		<g>
			<path class="st1" d="M578.1,349.7c-51.8,13.9-95.9-11.7-123.5-33.2c14.5,28.5,30.6,70.6,23.2,106.5
				c-10.2,49.9-99.8,67.4-137.9,29.3c-25.2-25.1-18.9-75.5-8.8-113.4c-22.5,20.9-54,43.6-86.6,47.3c-50.7,5.7-95.2-73.7-70.6-121.6
				c15.5-30.4,62.6-40.5,101.1-43.1c-26.3-16.6-57.9-42.7-71.9-73.5c-21.1-46.4,52.6-118.2,107.4-99.2c34.1,11.8,54.4,47.7,66,78.9
				c6-29.8,18.1-65.9,41.8-87.6c37.7-34.4,120.5,3.9,128.9,57c5.2,32.9-22.4,69.9-49.2,96.1c27.5-5.1,61.9-5.4,94.6,16.6
				C647.5,246.7,650.1,330.4,578.1,349.7z"/>
			<path class="st2" d="M487.5,293.9c-24.9,6.7-46.1-5.6-59.4-16c7,13.7,14.7,33.9,11.2,51.2c-4.9,24-48,32.4-66.3,14.1
				c-12.1-12-9.1-36.3-4.2-54.5c-10.8,10-26,21-41.6,22.7c-24.4,2.7-45.8-35.4-34-58.5c7.5-14.6,30.1-19.5,48.6-20.7
				c-12.7-8-27.8-20.5-34.6-35.3c-10.2-22.3,25.3-56.8,51.6-47.7c16.4,5.7,26.1,23,31.7,37.9c2.9-14.3,8.7-31.7,20.1-42.1
				c18.1-16.5,57.9,1.9,62,27.4c2.5,15.8-10.8,33.6-23.6,46.2c13.2-2.5,29.7-2.6,45.5,8C520.8,244.4,522.1,284.6,487.5,293.9z"/>
			<path class="st3" d="M382.7,254.7c0-4.5-3.6-8.1-8.1-8.1c-4.5,0-8.1,3.6-8.1,8.1c0,4.5,3.6,8.1,8.1,8.1
				C379.1,262.8,382.7,259.2,382.7,254.7z"/>
			<path class="st3" d="M401.9,210c0-4.5-3.6-8.1-8.1-8.1c-4.5,0-8.1,3.6-8.1,8.1c0,4.5,3.6,8.1,8.1,8.1
				C398.2,218.1,401.9,214.5,401.9,210z"/>
			<ellipse class="st3" cx="427.6" cy="226.2" rx="8.1" ry="8.1"/>
			<path class="st3" d="M410,230.4c0-4.5-3.6-8.1-8.1-8.1c-4.5,0-8.1,3.6-8.1,8.1c0,4.5,3.6,8.1,8.1,8.1S410,234.9,410,230.4z"/>
			<path class="st3" d="M416.2,254.7c0-4.5-3.6-8.1-8.1-8.1c-4.5,0-8.1,3.6-8.1,8.1c0,4.5,3.6,8.1,8.1,8.1
				C412.6,262.8,416.2,259.2,416.2,254.7z"/>
			<path class="st3" d="M385.6,230.4c0-4.5-3.6-8.1-8.1-8.1c-4.5,0-8.1,3.6-8.1,8.1c0,4.5,3.6,8.1,8.1,8.1S385.6,234.9,385.6,230.4z
				"/>
		</g>
	</g>
</g>
</svg>
